<svg width="57" height="40" viewBox="0 0 57 40" fill="none" xmlns="http://www.w3.org/2000/svg">
<path d="M1.68293 32.1951V33.7561H0.121951V32.1951H1.68293ZM1.68293 30.6341V32.1951H0.121951V30.6341H1.68293ZM1.68293 29.0732V30.6341H0.121951V29.0732H1.68293ZM1.68293 27.5122V29.0732H0.121951V27.5122H1.68293ZM1.68293 25.9512V27.5122H0.121951V25.9512H1.68293ZM1.68293 24.3902V25.9512H0.121951V24.3902H1.68293ZM1.68293 22.8293V24.3902H0.121951V22.8293H1.68293ZM1.68293 21.2683V22.8293H0.121951V21.2683H1.68293ZM1.68293 19.7073V21.2683H0.121951V19.7073H1.68293ZM1.68293 18.1463V19.7073H0.121951V18.1463H1.68293ZM1.68293 16.5854V18.1463H0.121951V16.5854H1.68293ZM3.2439 16.5854V18.1463H1.68293V16.5854H3.2439ZM3.2439 18.1463V19.7073H1.68293V18.1463H3.2439ZM3.2439 19.7073V21.2683H1.68293V19.7073H3.2439ZM3.2439 21.2683V22.8293H1.68293V21.2683H3.2439ZM3.2439 22.8293V24.3902H1.68293V22.8293H3.2439ZM3.2439 24.3902V25.9512H1.68293V24.3902H3.2439ZM3.2439 25.9512V27.5122H1.68293V25.9512H3.2439ZM4.80488 27.5122V29.0732H3.2439V27.5122H4.80488ZM4.80488 29.0732V30.6341H3.2439V29.0732H4.80488ZM4.80488 30.6341V32.1951H3.2439V30.6341H4.80488ZM4.80488 32.1951V33.7561H3.2439V32.1951H4.80488ZM4.80488 33.7561V35.3171H3.2439V33.7561H4.80488ZM4.80488 35.3171V36.878H3.2439V35.3171H4.80488ZM4.80488 36.878V38.439H3.2439V36.878H4.80488ZM7.92683 38.439V40H6.36585V38.439H7.92683ZM7.92683 36.878V38.439H6.36585V36.878H7.92683ZM7.92683 35.3171V36.878H6.36585V35.3171H7.92683ZM7.92683 33.7561V35.3171H6.36585V33.7561H7.92683ZM7.92683 32.1951V33.7561H6.36585V32.1951H7.92683ZM7.92683 30.6341V32.1951H6.36585V30.6341H7.92683ZM7.92683 29.0732V30.6341H6.36585V29.0732H7.92683ZM7.92683 27.5122V29.0732H6.36585V27.5122H7.92683ZM6.36585 27.5122V29.0732H4.80488V27.5122H6.36585ZM6.36585 25.9512V27.5122H4.80488V25.9512H6.36585ZM6.36585 29.0732V30.6341H4.80488V29.0732H6.36585ZM6.36585 30.6341V32.1951H4.80488V30.6341H6.36585ZM6.36585 32.1951V33.7561H4.80488V32.1951H6.36585ZM6.36585 33.7561V35.3171H4.80488V33.7561H6.36585ZM6.36585 35.3171V36.878H4.80488V35.3171H6.36585ZM6.36585 36.878V38.439H4.80488V36.878H6.36585ZM3.2439 35.3171V36.878H1.68293V35.3171H3.2439ZM3.2439 33.7561V35.3171H1.68293V33.7561H3.2439ZM3.2439 32.1951V33.7561H1.68293V32.1951H3.2439ZM3.2439 30.6341V32.1951H1.68293V30.6341H3.2439ZM3.2439 29.0732V30.6341H1.68293V29.0732H3.2439ZM3.2439 27.5122V29.0732H1.68293V27.5122H3.2439ZM1.68293 15.0244V16.5854H0.121951V15.0244H1.68293ZM6.36585 15.0244V16.5854H4.80488V15.0244H6.36585ZM6.36585 16.5854V18.1463H4.80488V16.5854H6.36585ZM6.36585 18.1463V19.7073H4.80488V18.1463H6.36585ZM6.36585 19.7073V21.2683H4.80488V19.7073H6.36585ZM6.36585 21.2683V22.8293H4.80488V21.2683H6.36585ZM7.92683 22.8293V24.3902H6.36585V22.8293H7.92683ZM7.92683 24.3902V25.9512H6.36585V24.3902H7.92683ZM7.92683 25.9512V27.5122H6.36585V25.9512H7.92683ZM7.92683 21.2683V22.8293H6.36585V21.2683H7.92683ZM7.92683 19.7073V21.2683H6.36585V19.7073H7.92683ZM7.92683 18.1463V19.7073H6.36585V18.1463H7.92683ZM7.92683 16.5854V18.1463H6.36585V16.5854H7.92683ZM7.92683 15.0244V16.5854H6.36585V15.0244H7.92683ZM3.2439 15.0244V16.5854H1.68293V15.0244H3.2439ZM4.80488 15.0244V16.5854H3.2439V15.0244H4.80488ZM4.80488 16.5854V18.1463H3.2439V16.5854H4.80488ZM4.80488 18.1463V19.7073H3.2439V18.1463H4.80488ZM4.80488 19.7073V21.2683H3.2439V19.7073H4.80488ZM4.80488 21.2683V22.8293H3.2439V21.2683H4.80488ZM4.80488 22.8293V24.3902H3.2439V22.8293H4.80488ZM4.80488 24.3902V25.9512H3.2439V24.3902H4.80488ZM4.80488 25.9512V27.5122H3.2439V25.9512H4.80488ZM6.36585 24.3902V25.9512H4.80488V24.3902H6.36585ZM6.36585 22.8293V24.3902H4.80488V22.8293H6.36585ZM20.4146 38.439V40H18.8537V38.439H20.4146ZM20.4146 36.878V38.439H18.8537V36.878H20.4146ZM20.4146 35.3171V36.878H18.8537V35.3171H20.4146ZM20.4146 33.7561V35.3171H18.8537V33.7561H20.4146ZM20.4146 32.1951V33.7561H18.8537V32.1951H20.4146ZM20.4146 30.6341V32.1951H18.8537V30.6341H20.4146ZM20.4146 29.0732V30.6341H18.8537V29.0732H20.4146ZM23.5366 29.0732V30.6341H21.9756V29.0732H23.5366ZM23.5366 30.6341V32.1951H21.9756V30.6341H23.5366ZM23.5366 32.1951V33.7561H21.9756V32.1951H23.5366ZM23.5366 33.7561V35.3171H21.9756V33.7561H23.5366ZM23.5366 35.3171V36.878H21.9756V35.3171H23.5366ZM23.5366 36.878V38.439H21.9756V36.878H23.5366ZM26.6585 32.1951V33.7561H25.0976V32.1951H26.6585ZM26.6585 30.6341V32.1951H25.0976V30.6341H26.6585ZM26.6585 29.0732V30.6341H25.0976V29.0732H26.6585ZM25.0976 29.0732V30.6341H23.5366V29.0732H25.0976ZM25.0976 30.6341V32.1951H23.5366V30.6341H25.0976ZM25.0976 32.1951V33.7561H23.5366V32.1951H25.0976ZM25.0976 33.7561V35.3171H23.5366V33.7561H25.0976ZM25.0976 35.3171V36.878H23.5366V35.3171H25.0976ZM21.9756 36.878V38.439H20.4146V36.878H21.9756ZM21.9756 35.3171V36.878H20.4146V35.3171H21.9756ZM21.9756 33.7561V35.3171H20.4146V33.7561H21.9756ZM21.9756 32.1951V33.7561H20.4146V32.1951H21.9756ZM21.9756 30.6341V32.1951H20.4146V30.6341H21.9756ZM21.9756 29.0732V30.6341H20.4146V29.0732H21.9756ZM9.4878 38.439V40H7.92683V38.439H9.4878ZM11.0488 38.439V40H9.4878V38.439H11.0488ZM12.6098 38.439V40H11.0488V38.439H12.6098ZM14.1707 38.439V40H12.6098V38.439H14.1707ZM17.2927 38.439V40H15.7317V38.439H17.2927ZM18.8537 38.439V40H17.2927V38.439H18.8537ZM18.8537 36.878V38.439H17.2927V36.878H18.8537ZM17.2927 36.878V38.439H15.7317V36.878H17.2927ZM14.1707 36.878V38.439H12.6098V36.878H14.1707ZM12.6098 36.878V38.439H11.0488V36.878H12.6098ZM11.0488 36.878V38.439H9.4878V36.878H11.0488ZM9.4878 36.878V38.439H7.92683V36.878H9.4878ZM9.4878 35.3171V36.878H7.92683V35.3171H9.4878ZM11.0488 35.3171V36.878H9.4878V35.3171H11.0488ZM12.6098 35.3171V36.878H11.0488V35.3171H12.6098ZM14.1707 35.3171V36.878H12.6098V35.3171H14.1707ZM17.2927 35.3171V36.878H15.7317V35.3171H17.2927ZM18.8537 35.3171V36.878H17.2927V35.3171H18.8537ZM18.8537 33.7561V35.3171H17.2927V33.7561H18.8537ZM17.2927 33.7561V35.3171H15.7317V33.7561H17.2927ZM14.1707 33.7561V35.3171H12.6098V33.7561H14.1707ZM12.6098 33.7561V35.3171H11.0488V33.7561H12.6098ZM11.0488 33.7561V35.3171H9.4878V33.7561H11.0488ZM9.4878 33.7561V35.3171H7.92683V33.7561H9.4878ZM9.4878 32.1951V33.7561H7.92683V32.1951H9.4878ZM18.8537 32.1951V33.7561H17.2927V32.1951H18.8537ZM25.0976 8.78049V7.21951H26.6585V8.78049H25.0976ZM25.0976 10.3415V8.78049H26.6585V10.3415H25.0976ZM25.0976 11.9024V10.3415H26.6585V11.9024H25.0976ZM21.9756 11.9024V10.3415H23.5366V11.9024H21.9756ZM21.9756 10.3415V8.78049H23.5366V10.3415H21.9756ZM21.9756 8.78049V7.21951H23.5366V8.78049H21.9756ZM21.9756 7.21951V5.65854H23.5366V7.21951H21.9756ZM21.9756 5.65854V4.09756H23.5366V5.65854H21.9756ZM21.9756 4.09756V2.53659H23.5366V4.09756H21.9756ZM18.8537 2.53659V0.975609H20.4146V2.53659H18.8537ZM18.8537 4.09756V2.53659H20.4146V4.09756H18.8537ZM18.8537 5.65854V4.09756H20.4146V5.65854H18.8537ZM18.8537 7.21951V5.65854H20.4146V7.21951H18.8537ZM18.8537 8.78049V7.21951H20.4146V8.78049H18.8537ZM18.8537 10.3415V8.78049H20.4146V10.3415H18.8537ZM18.8537 11.9024V10.3415H20.4146V11.9024H18.8537ZM20.4146 11.9024V10.3415H21.9756V11.9024H20.4146ZM20.4146 10.3415V8.78049H21.9756V10.3415H20.4146ZM20.4146 8.78049V7.21951H21.9756V8.78049H20.4146ZM20.4146 7.21951V5.65854H21.9756V7.21951H20.4146ZM20.4146 5.65854V4.09756H21.9756V5.65854H20.4146ZM20.4146 4.09756V2.53659H21.9756V4.09756H20.4146ZM23.5366 5.65854V4.09756H25.0976V5.65854H23.5366ZM23.5366 7.21951V5.65854H25.0976V7.21951H23.5366ZM23.5366 8.78049V7.21951H25.0976V8.78049H23.5366ZM23.5366 10.3415V8.78049H25.0976V10.3415H23.5366ZM23.5366 11.9024V10.3415H25.0976V11.9024H23.5366ZM6.36585 2.53659V0.975609H7.92683V2.53659H6.36585ZM6.36585 4.09756V2.53659H7.92683V4.09756H6.36585ZM6.36585 5.65854V4.09756H7.92683V5.65854H6.36585ZM6.36585 7.21951V5.65854H7.92683V7.21951H6.36585ZM6.36585 8.78049V7.21951H7.92683V8.78049H6.36585ZM6.36585 10.3415V8.78049H7.92683V10.3415H6.36585ZM6.36585 11.9024V10.3415H7.92683V11.9024H6.36585ZM3.2439 11.9024V10.3415H4.80488V11.9024H3.2439ZM3.2439 10.3415V8.78049H4.80488V10.3415H3.2439ZM3.2439 8.78049V7.21951H4.80488V8.78049H3.2439ZM3.2439 7.21951V5.65854H4.80488V7.21951H3.2439ZM3.2439 5.65854V4.09756H4.80488V5.65854H3.2439ZM3.2439 4.09756V2.53659H4.80488V4.09756H3.2439ZM0.121951 8.78049V7.21951H1.68293V8.78049H0.121951ZM0.121951 10.3415V8.78049H1.68293V10.3415H0.121951ZM0.121951 11.9024V10.3415H1.68293V11.9024H0.121951ZM1.68293 11.9024V10.3415H3.2439V11.9024H1.68293ZM1.68293 10.3415V8.78049H3.2439V10.3415H1.68293ZM1.68293 8.78049V7.21951H3.2439V8.78049H1.68293ZM1.68293 7.21951V5.65854H3.2439V7.21951H1.68293ZM1.68293 5.65854V4.09756H3.2439V5.65854H1.68293ZM4.80488 4.09756V2.53659H6.36585V4.09756H4.80488ZM4.80488 5.65854V4.09756H6.36585V5.65854H4.80488ZM4.80488 7.21951V5.65854H6.36585V7.21951H4.80488ZM4.80488 8.78049V7.21951H6.36585V8.78049H4.80488ZM4.80488 10.3415V8.78049H6.36585V10.3415H4.80488ZM4.80488 11.9024V10.3415H6.36585V11.9024H4.80488ZM17.2927 2.53659V0.975609H18.8537V2.53659H17.2927ZM15.7317 2.53659V0.975609H17.2927V2.53659H15.7317ZM12.6098 2.53659V0.975609H14.1707V2.53659H12.6098ZM11.0488 2.53659V0.975609H12.6098V2.53659H11.0488ZM9.4878 2.53659V0.975609H11.0488V2.53659H9.4878ZM7.92683 2.53659V0.975609H9.4878V2.53659H7.92683ZM7.92683 4.09756V2.53659H9.4878V4.09756H7.92683ZM9.4878 4.09756V2.53659H11.0488V4.09756H9.4878ZM11.0488 4.09756V2.53659H12.6098V4.09756H11.0488ZM12.6098 4.09756V2.53659H14.1707V4.09756H12.6098ZM15.7317 4.09756V2.53659H17.2927V4.09756H15.7317ZM17.2927 4.09756V2.53659H18.8537V4.09756H17.2927ZM17.2927 5.65854V4.09756H18.8537V5.65854H17.2927ZM15.7317 5.65854V4.09756H17.2927V5.65854H15.7317ZM12.6098 5.65854V4.09756H14.1707V5.65854H12.6098ZM11.0488 5.65854V4.09756H12.6098V5.65854H11.0488ZM9.4878 5.65854V4.09756H11.0488V5.65854H9.4878ZM7.92683 5.65854V4.09756H9.4878V5.65854H7.92683ZM7.92683 7.21951V5.65854H9.4878V7.21951H7.92683ZM9.4878 7.21951V5.65854H11.0488V7.21951H9.4878ZM11.0488 7.21951V5.65854H12.6098V7.21951H11.0488ZM12.6098 7.21951V5.65854H14.1707V7.21951H12.6098ZM15.7317 7.21951V5.65854H17.2927V7.21951H15.7317ZM17.2927 7.21951V5.65854H18.8537V7.21951H17.2927ZM17.2927 8.78049V7.21951H18.8537V8.78049H17.2927ZM7.92683 8.78049V7.21951H9.4878V8.78049H7.92683ZM1.68293 13.4634V15.0244H0.121951V13.4634H1.68293ZM3.2439 13.4634V15.0244H1.68293V13.4634H3.2439ZM1.68293 11.9024V13.4634H0.121951V11.9024H1.68293ZM6.36585 11.9024V13.4634H4.80488V11.9024H6.36585ZM6.36585 13.4634V15.0244H4.80488V13.4634H6.36585ZM7.92683 13.4634V15.0244H6.36585V13.4634H7.92683ZM7.92683 11.9024V13.4634H6.36585V11.9024H7.92683ZM3.2439 11.9024V13.4634H1.68293V11.9024H3.2439ZM4.80488 11.9024V13.4634H3.2439V11.9024H4.80488ZM4.80488 13.4634V15.0244H3.2439V13.4634H4.80488ZM14.1707 18.1463V19.7073H12.6098V18.1463H14.1707ZM14.1707 19.7073V21.2683H12.6098V19.7073H14.1707ZM17.2927 19.7073V21.2683H15.7317V19.7073H17.2927ZM18.8537 19.7073V21.2683H17.2927V19.7073H18.8537ZM20.4146 19.7073V21.2683H18.8537V19.7073H20.4146ZM21.9756 19.7073V21.2683H20.4146V19.7073H21.9756ZM23.5366 19.7073V21.2683H21.9756V19.7073H23.5366ZM25.0976 19.7073V21.2683H23.5366V19.7073H25.0976ZM26.6585 18.1463V19.7073H25.0976V18.1463H26.6585ZM25.0976 18.1463V19.7073H23.5366V18.1463H25.0976ZM23.5366 18.1463V19.7073H21.9756V18.1463H23.5366ZM21.9756 18.1463V19.7073H20.4146V18.1463H21.9756ZM20.4146 18.1463V19.7073H18.8537V18.1463H20.4146ZM18.8537 18.1463V19.7073H17.2927V18.1463H18.8537ZM17.2927 18.1463V19.7073H15.7317V18.1463H17.2927ZM26.6585 19.7073V21.2683H25.0976V19.7073H26.6585ZM26.6585 21.2683V22.8293H25.0976V21.2683H26.6585ZM26.6585 22.8293V24.3902H25.0976V22.8293H26.6585ZM26.6585 24.3902V25.9512H25.0976V24.3902H26.6585ZM26.6585 25.9512V27.5122H25.0976V25.9512H26.6585ZM26.6585 27.5122V29.0732H25.0976V27.5122H26.6585ZM25.0976 27.5122V29.0732H23.5366V27.5122H25.0976ZM23.5366 27.5122V29.0732H21.9756V27.5122H23.5366ZM21.9756 27.5122V29.0732H20.4146V27.5122H21.9756ZM20.4146 27.5122V29.0732H18.8537V27.5122H20.4146ZM20.4146 25.9512V27.5122H18.8537V25.9512H20.4146ZM21.9756 25.9512V27.5122H20.4146V25.9512H21.9756ZM23.5366 25.9512V27.5122H21.9756V25.9512H23.5366ZM25.0976 25.9512V27.5122H23.5366V25.9512H25.0976ZM25.0976 24.3902V25.9512H23.5366V24.3902H25.0976ZM23.5366 24.3902V25.9512H21.9756V24.3902H23.5366ZM21.9756 24.3902V25.9512H20.4146V24.3902H21.9756ZM20.4146 24.3902V25.9512H18.8537V24.3902H20.4146ZM14.1707 21.2683V22.8293H12.6098V21.2683H14.1707ZM14.1707 22.8293V24.3902H12.6098V22.8293H14.1707ZM17.2927 22.8293V24.3902H15.7317V22.8293H17.2927ZM18.8537 22.8293V24.3902H17.2927V22.8293H18.8537ZM20.4146 22.8293V24.3902H18.8537V22.8293H20.4146ZM21.9756 22.8293V24.3902H20.4146V22.8293H21.9756ZM23.5366 22.8293V24.3902H21.9756V22.8293H23.5366ZM25.0976 22.8293V24.3902H23.5366V22.8293H25.0976ZM25.0976 21.2683V22.8293H23.5366V21.2683H25.0976ZM23.5366 21.2683V22.8293H21.9756V21.2683H23.5366ZM21.9756 21.2683V22.8293H20.4146V21.2683H21.9756ZM20.4146 21.2683V22.8293H18.8537V21.2683H20.4146ZM18.8537 21.2683V22.8293H17.2927V21.2683H18.8537ZM17.2927 21.2683V22.8293H15.7317V21.2683H17.2927ZM11.0488 32.1951V33.7561H9.4878V32.1951H11.0488ZM12.6098 32.1951V33.7561H11.0488V32.1951H12.6098ZM14.1707 32.1951V33.7561H12.6098V32.1951H14.1707ZM17.2927 32.1951V33.7561H15.7317V32.1951H17.2927ZM18.8537 30.6341V32.1951H17.2927V30.6341H18.8537ZM9.4878 30.6341V32.1951H7.92683V30.6341H9.4878ZM11.0488 7.21951V8.78049H9.4878V7.21951H11.0488ZM12.6098 7.21951V8.78049H11.0488V7.21951H12.6098ZM14.1707 7.21951V8.78049H12.6098V7.21951H14.1707ZM17.2927 7.21951V8.78049H15.7317V7.21951H17.2927ZM9.4878 8.78049V10.3415H7.92683V8.78049H9.4878ZM18.8537 8.78049V10.3415H17.2927V8.78049H18.8537ZM20.4146 11.9024V13.4634H18.8537V11.9024H20.4146ZM21.9756 11.9024V13.4634H20.4146V11.9024H21.9756ZM23.5366 11.9024V13.4634H21.9756V11.9024H23.5366ZM25.0976 11.9024V13.4634H23.5366V11.9024H25.0976ZM26.6585 11.9024V13.4634H25.0976V11.9024H26.6585ZM14.1707 24.3902V25.9512H12.6098V24.3902H14.1707ZM17.2927 24.3902V25.9512H15.7317V24.3902H17.2927ZM18.8537 24.3902V25.9512H17.2927V24.3902H18.8537ZM15.7317 0.975609V2.53659H14.1707V0.975609H15.7317ZM15.7317 2.53659V4.09756H14.1707V2.53659H15.7317ZM15.7317 4.09756V5.65854H14.1707V4.09756H15.7317ZM15.7317 5.65854V7.21951H14.1707V5.65854H15.7317ZM15.7317 7.21951V8.78049H14.1707V7.21951H15.7317ZM15.7317 18.1463V19.7073H14.1707V18.1463H15.7317ZM15.7317 19.7073V21.2683H14.1707V19.7073H15.7317ZM15.7317 21.2683V22.8293H14.1707V21.2683H15.7317ZM15.7317 22.8293V24.3902H14.1707V22.8293H15.7317ZM15.7317 24.3902V25.9512H14.1707V24.3902H15.7317ZM15.7317 32.1951V33.7561H14.1707V32.1951H15.7317ZM15.7317 33.7561V35.3171H14.1707V33.7561H15.7317ZM15.7317 35.3171V36.878H14.1707V35.3171H15.7317ZM15.7317 36.878V38.439H14.1707V36.878H15.7317ZM15.7317 38.439V40H14.1707V38.439H15.7317ZM42.2378 38.439V40H40.6768V38.439H42.2378ZM42.2378 36.878V38.439H40.6768V36.878H42.2378ZM42.2378 35.3171V36.878H40.6768V35.3171H42.2378ZM42.2378 33.7561V35.3171H40.6768V33.7561H42.2378ZM42.2378 32.1951V33.7561H40.6768V32.1951H42.2378ZM42.2378 30.6341V32.1951H40.6768V30.6341H42.2378ZM42.2378 29.0732V30.6341H40.6768V29.0732H42.2378ZM42.2378 27.5122V29.0732H40.6768V27.5122H42.2378ZM42.2378 25.9512V27.5122H40.6768V25.9512H42.2378ZM42.2378 24.3902V25.9512H40.6768V24.3902H42.2378ZM42.2378 22.8293V24.3902H40.6768V22.8293H42.2378ZM42.2378 21.2683V22.8293H40.6768V21.2683H42.2378ZM42.2378 19.7073V21.2683H40.6768V19.7073H42.2378ZM42.2378 18.1463V19.7073H40.6768V18.1463H42.2378ZM42.2378 16.5854V18.1463H40.6768V16.5854H42.2378ZM43.7988 16.5854V18.1463H42.2378V16.5854H43.7988ZM43.7988 18.1463V19.7073H42.2378V18.1463H43.7988ZM43.7988 19.7073V21.2683H42.2378V19.7073H43.7988ZM43.7988 21.2683V22.8293H42.2378V21.2683H43.7988ZM43.7988 22.8293V24.3902H42.2378V22.8293H43.7988ZM43.7988 24.3902V25.9512H42.2378V24.3902H43.7988ZM43.7988 25.9512V27.5122H42.2378V25.9512H43.7988ZM45.3598 27.5122V29.0732H43.7988V27.5122H45.3598ZM45.3598 29.0732V30.6341H43.7988V29.0732H45.3598ZM45.3598 30.6341V32.1951H43.7988V30.6341H45.3598ZM45.3598 32.1951V33.7561H43.7988V32.1951H45.3598ZM45.3598 33.7561V35.3171H43.7988V33.7561H45.3598ZM45.3598 35.3171V36.878H43.7988V35.3171H45.3598ZM45.3598 36.878V38.439H43.7988V36.878H45.3598ZM45.3598 38.439V40H43.7988V38.439H45.3598ZM46.9207 38.439V40H45.3598V38.439H46.9207ZM48.4817 38.439V40H46.9207V38.439H48.4817ZM48.4817 36.878V38.439H46.9207V36.878H48.4817ZM48.4817 35.3171V36.878H46.9207V35.3171H48.4817ZM48.4817 33.7561V35.3171H46.9207V33.7561H48.4817ZM48.4817 32.1951V33.7561H46.9207V32.1951H48.4817ZM48.4817 30.6341V32.1951H46.9207V30.6341H48.4817ZM48.4817 29.0732V30.6341H46.9207V29.0732H48.4817ZM48.4817 27.5122V29.0732H46.9207V27.5122H48.4817ZM46.9207 27.5122V29.0732H45.3598V27.5122H46.9207ZM46.9207 25.9512V27.5122H45.3598V25.9512H46.9207ZM46.9207 29.0732V30.6341H45.3598V29.0732H46.9207ZM46.9207 30.6341V32.1951H45.3598V30.6341H46.9207ZM46.9207 32.1951V33.7561H45.3598V32.1951H46.9207ZM46.9207 33.7561V35.3171H45.3598V33.7561H46.9207ZM46.9207 35.3171V36.878H45.3598V35.3171H46.9207ZM46.9207 36.878V38.439H45.3598V36.878H46.9207ZM43.7988 38.439V40H42.2378V38.439H43.7988ZM43.7988 36.878V38.439H42.2378V36.878H43.7988ZM43.7988 35.3171V36.878H42.2378V35.3171H43.7988ZM43.7988 33.7561V35.3171H42.2378V33.7561H43.7988ZM43.7988 32.1951V33.7561H42.2378V32.1951H43.7988ZM43.7988 30.6341V32.1951H42.2378V30.6341H43.7988ZM43.7988 29.0732V30.6341H42.2378V29.0732H43.7988ZM43.7988 27.5122V29.0732H42.2378V27.5122H43.7988ZM42.2378 0.975609V2.53659H40.6768V0.975609H42.2378ZM42.2378 2.53659V4.09756H40.6768V2.53659H42.2378ZM42.2378 4.09756V5.65854H40.6768V4.09756H42.2378ZM42.2378 5.65854V7.21951H40.6768V5.65854H42.2378ZM42.2378 7.21951V8.78049H40.6768V7.21951H42.2378ZM42.2378 8.78049V10.3415H40.6768V8.78049H42.2378ZM42.2378 10.3415V11.9024H40.6768V10.3415H42.2378ZM42.2378 11.9024V13.4634H40.6768V11.9024H42.2378ZM42.2378 13.4634V15.0244H40.6768V13.4634H42.2378ZM42.2378 15.0244V16.5854H40.6768V15.0244H42.2378ZM46.9207 0.975609V2.53659H45.3598V0.975609H46.9207ZM46.9207 2.53659V4.09756H45.3598V2.53659H46.9207ZM46.9207 4.09756V5.65854H45.3598V4.09756H46.9207ZM46.9207 5.65854V7.21951H45.3598V5.65854H46.9207ZM46.9207 7.21951V8.78049H45.3598V7.21951H46.9207ZM46.9207 8.78049V10.3415H45.3598V8.78049H46.9207ZM46.9207 11.9024V13.4634H45.3598V11.9024H46.9207ZM46.9207 13.4634V15.0244H45.3598V13.4634H46.9207ZM46.9207 15.0244V16.5854H45.3598V15.0244H46.9207ZM46.9207 16.5854V18.1463H45.3598V16.5854H46.9207ZM46.9207 18.1463V19.7073H45.3598V18.1463H46.9207ZM46.9207 19.7073V21.2683H45.3598V19.7073H46.9207ZM46.9207 21.2683V22.8293H45.3598V21.2683H46.9207ZM48.4817 22.8293V24.3902H46.9207V22.8293H48.4817ZM48.4817 24.3902V25.9512H46.9207V24.3902H48.4817ZM48.4817 25.9512V27.5122H46.9207V25.9512H48.4817ZM48.4817 21.2683V22.8293H46.9207V21.2683H48.4817ZM48.4817 19.7073V21.2683H46.9207V19.7073H48.4817ZM48.4817 18.1463V19.7073H46.9207V18.1463H48.4817ZM48.4817 16.5854V18.1463H46.9207V16.5854H48.4817ZM48.4817 15.0244V16.5854H46.9207V15.0244H48.4817ZM48.4817 13.4634V15.0244H46.9207V13.4634H48.4817ZM48.4817 11.9024V13.4634H46.9207V11.9024H48.4817ZM48.4817 10.3415V11.9024H46.9207V10.3415H48.4817ZM48.4817 8.78049V10.3415H46.9207V8.78049H48.4817ZM48.4817 7.21951V8.78049H46.9207V7.21951H48.4817ZM46.9207 10.3415V11.9024H45.3598V10.3415H46.9207ZM48.4817 5.65854V7.21951H46.9207V5.65854H48.4817ZM48.4817 4.09756V5.65854H46.9207V4.09756H48.4817ZM48.4817 2.53659V4.09756H46.9207V2.53659H48.4817ZM48.4817 0.975609V2.53659H46.9207V0.975609H48.4817ZM45.3598 0.975609V2.53659H43.7988V0.975609H45.3598ZM43.7988 0.975609V2.53659H42.2378V0.975609H43.7988ZM43.7988 2.53659V4.09756H42.2378V2.53659H43.7988ZM45.3598 2.53659V4.09756H43.7988V2.53659H45.3598ZM45.3598 4.09756V5.65854H43.7988V4.09756H45.3598ZM45.3598 5.65854V7.21951H43.7988V5.65854H45.3598ZM45.3598 7.21951V8.78049H43.7988V7.21951H45.3598ZM45.3598 8.78049V10.3415H43.7988V8.78049H45.3598ZM45.3598 10.3415V11.9024H43.7988V10.3415H45.3598ZM45.3598 11.9024V13.4634H43.7988V11.9024H45.3598ZM43.7988 13.4634V15.0244H42.2378V13.4634H43.7988ZM43.7988 15.0244V16.5854H42.2378V15.0244H43.7988ZM43.7988 11.9024V13.4634H42.2378V11.9024H43.7988ZM43.7988 10.3415V11.9024H42.2378V10.3415H43.7988ZM43.7988 8.78049V10.3415H42.2378V8.78049H43.7988ZM43.7988 7.21951V8.78049H42.2378V7.21951H43.7988ZM43.7988 5.65854V7.21951H42.2378V5.65854H43.7988ZM43.7988 4.09756V5.65854H42.2378V4.09756H43.7988ZM45.3598 13.4634V15.0244H43.7988V13.4634H45.3598ZM45.3598 15.0244V16.5854H43.7988V15.0244H45.3598ZM45.3598 16.5854V18.1463H43.7988V16.5854H45.3598ZM45.3598 18.1463V19.7073H43.7988V18.1463H45.3598ZM45.3598 19.7073V21.2683H43.7988V19.7073H45.3598ZM45.3598 21.2683V22.8293H43.7988V21.2683H45.3598ZM45.3598 22.8293V24.3902H43.7988V22.8293H45.3598ZM45.3598 24.3902V25.9512H43.7988V24.3902H45.3598ZM45.3598 25.9512V27.5122H43.7988V25.9512H45.3598ZM46.9207 24.3902V25.9512H45.3598V24.3902H46.9207ZM46.9207 22.8293V24.3902H45.3598V22.8293H46.9207ZM40.6768 0.975609V2.53659H39.1159V0.975609H40.6768ZM39.1159 0.975609V2.53659H37.5549V0.975609H39.1159ZM37.5549 0.975609V2.53659H35.9939V0.975609H37.5549ZM35.9939 0.975609V2.53659H34.4329V0.975609H35.9939ZM34.4329 0.975609V2.53659H32.872V0.975609H34.4329ZM34.4329 2.53659V4.09756H32.872V2.53659H34.4329ZM34.4329 4.09756V5.65854H32.872V4.09756H34.4329ZM35.9939 2.53659V4.09756H34.4329V2.53659H35.9939ZM37.5549 2.53659V4.09756H35.9939V2.53659H37.5549ZM39.1159 2.53659V4.09756H37.5549V2.53659H39.1159ZM40.6768 4.09756V5.65854H39.1159V4.09756H40.6768ZM40.6768 2.53659V4.09756H39.1159V2.53659H40.6768ZM39.1159 4.09756V5.65854H37.5549V4.09756H39.1159ZM37.5549 4.09756V5.65854H35.9939V4.09756H37.5549ZM35.9939 4.09756V5.65854H34.4329V4.09756H35.9939ZM50.0427 0.975609V2.53659H48.4817V0.975609H50.0427ZM51.6037 0.975609V2.53659H50.0427V0.975609H51.6037ZM53.1646 0.975609V2.53659H51.6037V0.975609H53.1646ZM54.7256 0.975609V2.53659H53.1646V0.975609H54.7256ZM56.2866 0.975609V2.53659H54.7256V0.975609H56.2866ZM56.2866 2.53659V4.09756H54.7256V2.53659H56.2866ZM54.7256 2.53659V4.09756H53.1646V2.53659H54.7256ZM53.1646 2.53659V4.09756H51.6037V2.53659H53.1646ZM51.6037 2.53659V4.09756H50.0427V2.53659H51.6037ZM50.0427 2.53659V4.09756H48.4817V2.53659H50.0427ZM50.0427 4.09756V5.65854H48.4817V4.09756H50.0427ZM51.6037 4.09756V5.65854H50.0427V4.09756H51.6037ZM53.1646 4.09756V5.65854H51.6037V4.09756H53.1646ZM54.7256 4.09756V5.65854H53.1646V4.09756H54.7256ZM56.2866 4.09756V5.65854H54.7256V4.09756H56.2866ZM34.4329 5.65854V7.21951H32.872V5.65854H34.4329ZM34.4329 7.21951V8.78049H32.872V7.21951H34.4329ZM35.9939 7.21951V8.78049H34.4329V7.21951H35.9939ZM37.5549 7.21951V8.78049H35.9939V7.21951H37.5549ZM39.1159 7.21951V8.78049H37.5549V7.21951H39.1159ZM40.6768 7.21951V8.78049H39.1159V7.21951H40.6768ZM40.6768 5.65854V7.21951H39.1159V5.65854H40.6768ZM39.1159 5.65854V7.21951H37.5549V5.65854H39.1159ZM37.5549 5.65854V7.21951H35.9939V5.65854H37.5549ZM35.9939 5.65854V7.21951H34.4329V5.65854H35.9939ZM56.2866 5.65854V7.21951H54.7256V5.65854H56.2866ZM56.2866 7.21951V8.78049H54.7256V7.21951H56.2866ZM54.7256 7.21951V8.78049H53.1646V7.21951H54.7256ZM53.1646 7.21951V8.78049H51.6037V7.21951H53.1646ZM51.6037 7.21951V8.78049H50.0427V7.21951H51.6037ZM50.0427 7.21951V8.78049H48.4817V7.21951H50.0427ZM50.0427 5.65854V7.21951H48.4817V5.65854H50.0427ZM51.6037 5.65854V7.21951H50.0427V5.65854H51.6037ZM53.1646 5.65854V7.21951H51.6037V5.65854H53.1646ZM54.7256 5.65854V7.21951H53.1646V5.65854H54.7256Z" fill="#A6CEEB"/>
</svg>
